<?xml version="1.0" encoding="UTF-8" standalone="no"?>
<svg width="25px" height="25px" viewBox="0 0 25 25" version="1.1" xmlns="http://www.w3.org/2000/svg" xmlns:xlink="http://www.w3.org/1999/xlink">
    <!-- Generator: Sketch 41.2 (35397) - http://www.bohemiancoding.com/sketch -->
    <title>Group 2</title>
    <desc>Created with Sketch.</desc>
    <defs></defs>
    <g id="Part-1---Pantry" stroke="none" stroke-width="1" fill="none" fill-rule="evenodd">
        <g id="01_Pantry-Copy" transform="translate(-160.000000, -161.000000)">
            <g id="Group-2" transform="translate(161.000000, 162.000000)">
                <g id="edit" transform="translate(5.000000, 5.000000)" fill="#F36F69">
                    <path d="M12.2148929,0.610767857 C11.4000714,-0.203589286 10.0747679,-0.203589286 9.25994643,0.610767857 L0.888410714,8.98230357 C0.884464286,8.98625 0.882142857,8.991125 0.878660714,8.99530357 C0.873785714,9.000875 0.869607143,9.00691071 0.865196429,9.01294643 C0.852892857,9.030125 0.843375,9.04846429 0.836178571,9.06842857 C0.834089286,9.07446429 0.831071429,9.07980357 0.829446429,9.08583929 C0.82875,9.08816071 0.827357143,9.09048214 0.826660714,9.09280357 L0.00603571429,12.540125 C0.00232142857,12.5556786 0.00139285714,12.5714643 0.000928571429,12.5870179 C0.000928571429,12.5900357 0,12.5928214 0,12.5958393 C0.000232142857,12.6223036 0.00603571429,12.6480714 0.0150892857,12.6729107 C0.0171785714,12.6787143 0.0195,12.6838214 0.0220535714,12.6893929 C0.0334285714,12.7142321 0.0475892857,12.7381429 0.0675535714,12.7581071 C0.0896071429,12.7801607 0.115607143,12.7971071 0.143696429,12.8087143 C0.171785714,12.8203214 0.201732143,12.826125 0.231678571,12.826125 C0.249553571,12.826125 0.267660714,12.8240357 0.285303571,12.8198571 L3.732625,11.9992321 C3.73889286,11.9978393 3.74446429,11.9943571 3.7505,11.9922679 C3.75839286,11.9897143 3.76582143,11.9866964 3.77348214,11.9832143 C3.79019643,11.9755536 3.80575,11.9660357 3.82014286,11.9546607 C3.82571429,11.95025 3.83151786,11.947 3.83685714,11.942125 C3.83871429,11.9402679 3.84103571,11.9393393 3.84289286,11.9374821 L12.2146607,3.56571429 C13.0294821,2.75089286 13.0294821,1.42535714 12.2148929,0.610767857 Z M11.8866429,0.939017857 C12.4642143,1.51682143 12.5134286,2.42403571 12.0375357,3.06010714 L9.76555357,0.788125 C10.4018571,0.312232143 11.3090714,0.361446429 11.8866429,0.939017857 Z M10.7375357,4.38633929 L8.43932143,2.088125 L8.76757143,1.759875 L11.0657857,4.05808929 L10.7375357,4.38633929 Z M1.15166071,11.674 C1.06089286,11.5832321 0.914178571,11.5832321 0.823410714,11.674 L0.647678571,11.8497321 L1.24057143,9.35930357 L2.26710714,9.24532143 L2.13501786,10.4343571 C2.13408929,10.4431786 2.13733929,10.4513036 2.13733929,10.4598929 C2.13733929,10.4687143 2.13408929,10.4766071 2.13501786,10.4854286 C2.13594643,10.4930893 2.13989286,10.4993571 2.14151786,10.5067857 C2.14430357,10.52025 2.14825,10.5325536 2.153125,10.5450893 C2.15916071,10.5601786 2.16635714,10.573875 2.17517857,10.5871071 C2.182375,10.5977857 2.18957143,10.6073036 2.19839286,10.6165893 C2.20953571,10.6284286 2.22160714,10.6384107 2.23483929,10.6476964 C2.24528571,10.6548929 2.25526786,10.661625 2.266875,10.6671964 C2.28219643,10.6743929 2.29821429,10.6785714 2.31492857,10.6825179 C2.32375,10.6846071 2.33094643,10.6894821 2.34,10.6906429 C2.34835714,10.6915714 2.35671429,10.6920357 2.36530357,10.6920357 L2.36553571,10.6920357 L2.36576786,10.6920357 L2.366,10.6920357 L2.36623214,10.6920357 C2.37458929,10.6920357 2.38317857,10.6915714 2.39153571,10.6906429 L3.58057143,10.5585536 L3.46658929,11.5850893 L0.975928571,12.1779821 L1.15166071,12.00225 C1.24219643,11.9117143 1.24219643,11.7647679 1.15166071,11.674 Z M4.06505357,10.4020893 L9.25994643,5.20696429 C9.35071429,5.11619643 9.35071429,4.96948214 9.25994643,4.87871429 C9.16917857,4.78794643 9.02246429,4.78794643 8.93169643,4.87871429 L3.73680357,10.0738393 L2.62878571,10.196875 L2.75182143,9.08885714 L7.94717857,3.89396429 C8.03794643,3.80319643 8.03794643,3.65648214 7.94717857,3.56571429 C7.85641071,3.47494643 7.70969643,3.47494643 7.61892857,3.56571429 L2.42357143,8.76060714 L1.68466071,8.84278571 L8.11107143,2.416375 L10.4092857,4.71458929 L3.982875,11.141 L4.06505357,10.4020893 Z M11.3940357,3.72983929 L9.09582143,1.431625 L9.42430357,1.10314286 L11.7225179,3.40135714 L11.3940357,3.72983929 Z" id="Shape"></path>
                </g>
                <circle id="Oval" stroke="#F36F69" cx="11.5" cy="11.5" r="11.5"></circle>
            </g>
        </g>
    </g>
</svg>