<?xml version="1.0" encoding="UTF-8" standalone="no"?>
<svg width="25px" height="25px" viewBox="0 0 25 25" version="1.1" xmlns="http://www.w3.org/2000/svg" xmlns:xlink="http://www.w3.org/1999/xlink">
    <!-- Generator: Sketch 41.2 (35397) - http://www.bohemiancoding.com/sketch -->
    <title>Group 3</title>
    <desc>Created with Sketch.</desc>
    <defs></defs>
    <g id="Part-1---Pantry" stroke="none" stroke-width="1" fill="none" fill-rule="evenodd">
        <g id="01_Pantry-Copy" transform="translate(-198.000000, -161.000000)">
            <g id="Group-3" transform="translate(199.000000, 162.000000)">
                <circle id="Oval" stroke="#F36F69" cx="11.5" cy="11.5" r="11.5"></circle>
                <g id="rubbish-bin" transform="translate(6.000000, 4.000000)" fill="#F36F69">
                    <g id="Group">
                        <path d="M10.0372757,1.64692387 L8.1821876,1.64692387 L8.1821876,0.433385806 C8.1821876,0.189117419 7.98646656,0 7.7438385,0 C7.72029527,0 7.7045938,0.00791225806 7.69693148,0.0158064516 C7.68907178,0.00791225806 7.67337031,0 7.66552855,0 L3.30559869,0 L3.2743752,0 L3.24297227,0 C3.00034421,0 2.81248287,0.189117419 2.81248287,0.433385806 L2.81248287,1.64694194 L0.949553018,1.64694194 C0.417192496,1.64694194 0.00238662316,2.06452129 0.00238662316,2.60044129 L0.00238662316,3.29388387 L0.00238662316,4.16063742 L0.824300163,4.16063742 L0.824300163,13.0411535 C0.824300163,13.5770916 1.23126427,13.9867587 1.7636248,13.9867587 L9.22322186,13.9867587 C9.75558238,13.9867587 10.1703703,13.5770916 10.1703703,13.0411535 L10.1703703,4.16063742 L10.9844421,4.16063742 L10.9844421,3.29388387 L10.9844421,2.60044129 C10.9844421,2.06452129 10.5694747,1.64692387 10.0372757,1.64692387 Z M3.67347961,0.866753548 L7.3133491,0.866753548 L7.3133491,1.64692387 L3.67347961,1.64692387 L3.67347961,0.866753548 L3.67347961,0.866753548 Z M9.30153181,13.0411716 C9.30153181,13.0964671 9.27798858,13.1199871 9.22322186,13.1199871 L1.7636248,13.1199871 C1.70885808,13.1199871 1.68531485,13.096449 1.68531485,13.0411716 L1.68531485,4.16061935 L9.30153181,4.16061935 L9.30153181,13.0411716 L9.30153181,13.0411716 Z M10.1156036,3.29386581 L0.871225122,3.29386581 L0.871225122,2.60042323 C0.871225122,2.54527226 0.894768352,2.51367742 0.949535073,2.51367742 L10.0372757,2.51367742 C10.0920604,2.51367742 10.1156036,2.54527226 10.1156036,2.60042323 L10.1156036,3.29386581 Z" id="Shape"></path>
                        <rect id="Rectangle-path" x="7.0707031" y="5.17716387" width="0.868838499" height="7.17056516"></rect>
                        <rect id="Rectangle-path" x="5.06683687" y="5.17716387" width="0.868838499" height="7.17056516"></rect>
                        <rect id="Rectangle-path" x="3.06295269" y="5.17716387" width="0.868838499" height="7.17056516"></rect>
                    </g>
                </g>
            </g>
        </g>
    </g>
</svg>