<?xml version="1.0" encoding="UTF-8" standalone="no"?>
<svg width="23px" height="23px" viewBox="0 0 23 23" version="1.1" xmlns="http://www.w3.org/2000/svg" xmlns:xlink="http://www.w3.org/1999/xlink">
    <!-- Generator: Sketch 41.2 (35397) - http://www.bohemiancoding.com/sketch -->
    <title>Group</title>
    <desc>Created with Sketch.</desc>
    <defs></defs>
    <g id="Part-1---Pantry" stroke="none" stroke-width="1" fill="none" fill-rule="evenodd">
        <g id="Meal-Planner_1-Copy-6" transform="translate(-304.000000, -199.000000)">
            <g id="Group" transform="translate(304.000000, 199.000000)">
                <path d="M23,3.94521875 C23,2.74634375 22.0329219,1.77135937 20.84375,1.77135937 L18.5624375,1.77135937 L18.5624375,0.724859375 C18.5624375,0.32415625 18.2407969,-1.5959456e-16 17.8436875,-1.5959456e-16 C17.4465781,-1.5959456e-16 17.1249375,0.32415625 17.1249375,0.724859375 L17.1249375,1.77135937 L5.84271875,1.77135937 L5.84271875,0.724859375 C5.84271875,0.32415625 5.52107812,-1.5959456e-16 5.12396875,-1.5959456e-16 C4.72685937,-1.5959456e-16 4.40521875,0.32415625 4.40521875,0.724859375 L4.40521875,1.77135937 L2.15625,1.77135937 C0.967078125,1.77135937 0,2.74634375 0,3.94521875 L0,7.25470312 C0,7.29423437 0.016171875,7.328375 0.022640625,7.36646875 C0.016171875,7.4045625 0,7.43870312 0,7.47823437 C0,7.4793125 0.00071875,7.48110937 0.00071875,7.4821875 C0.00071875,7.48398437 0,7.48542187 0,7.48685937 L0,20.8265 C0,22.0250156 0.967078125,23 2.15625,23 L20.84375,23 C22.0329219,23 23,22.0250156 23,20.8261406 L23,7.48685937 C23,7.48542187 22.9992812,7.48398437 22.9992812,7.48254687 C22.9992812,7.48146875 23,7.47967187 23,7.47859375 C23,7.4390625 22.9838281,7.40492188 22.9773594,7.36646875 C22.9838281,7.328375 23,7.29423437 23,7.25470312 L23,3.94521875 L23,3.94521875 Z M21.5625,20.8261406 C21.5625,21.2257656 21.2405,21.5506406 20.84375,21.5506406 L2.15625,21.5506406 C1.7595,21.5506406 1.4375,21.2257656 1.4375,20.8261406 L1.4375,8.20273438 L21.5625,8.20273438 L21.5625,20.8261406 Z M21.5625,6.753375 L1.4375,6.753375 L1.4375,3.94485937 C1.4375,3.544875 1.7595,3.22 2.15625,3.22 L4.40521875,3.22 L4.40521875,4.26685937 C4.40521875,4.66720312 4.72685938,4.99135937 5.12396875,4.99135937 C5.52107812,4.99135937 5.84271875,4.66720312 5.84271875,4.26685937 L5.84271875,3.22035937 L17.1252969,3.22035937 L17.1252969,4.26721875 C17.1252969,4.6675625 17.4469375,4.99171875 17.8440469,4.99171875 C18.2415156,4.99171875 18.5627969,4.6675625 18.5627969,4.26721875 L18.5627969,3.22035937 L20.84375,3.22035937 C21.2405,3.22035937 21.5625,3.54523437 21.5625,3.94521875 L21.5625,6.753375 Z" id="Shape" fill="#4A4A4A"></path>
                <ellipse id="Oval" fill="#1D1D1B" cx="7.61228125" cy="12.1569375" rx="0.71875" ry="0.7245"></ellipse>
                <ellipse id="Oval" fill="#1D1D1B" cx="11.0874375" cy="12.1569375" rx="0.71875" ry="0.7245"></ellipse>
                <ellipse id="Oval" fill="#1D1D1B" cx="14.9722812" cy="12.1569375" rx="0.71875" ry="0.7245"></ellipse>
                <ellipse id="Oval" fill="#1D1D1B" cx="18.9379844" cy="12.1569375" rx="0.71875" ry="0.7245"></ellipse>
                <ellipse id="Oval" fill="#1D1D1B" cx="4.06201563" cy="14.6646563" rx="0.71875" ry="0.7245"></ellipse>
                <ellipse id="Oval" fill="#1D1D1B" cx="7.61228125" cy="14.6646563" rx="0.71875" ry="0.7245"></ellipse>
                <ellipse id="Oval" fill="#1D1D1B" cx="11.0874375" cy="14.6646563" rx="0.71875" ry="0.7245"></ellipse>
                <ellipse id="Oval" fill="#1D1D1B" cx="14.9722812" cy="14.6646563" rx="0.71875" ry="0.7245"></ellipse>
                <ellipse id="Oval" fill="#1D1D1B" cx="18.9379844" cy="14.6646563" rx="0.71875" ry="0.7245"></ellipse>
                <ellipse id="Oval" fill="#1D1D1B" cx="4.06201563" cy="17.1619531" rx="0.71875" ry="0.7245"></ellipse>
                <ellipse id="Oval" fill="#1D1D1B" cx="7.61228125" cy="17.1619531" rx="0.71875" ry="0.7245"></ellipse>
                <ellipse id="Oval" fill="#1D1D1B" cx="11.0874375" cy="17.1619531" rx="0.71875" ry="0.7245"></ellipse>
                <ellipse id="Oval" fill="#1D1D1B" cx="14.9722812" cy="17.1619531" rx="0.71875" ry="0.7245"></ellipse>
                <ellipse id="Oval" fill="#1D1D1B" cx="18.9379844" cy="17.1619531" rx="0.71875" ry="0.7245"></ellipse>
                <ellipse id="Oval" fill="#1D1D1B" cx="4.06201563" cy="19.6700312" rx="0.71875" ry="0.7245"></ellipse>
                <ellipse id="Oval" fill="#1D1D1B" cx="7.61228125" cy="19.6700312" rx="0.71875" ry="0.7245"></ellipse>
                <ellipse id="Oval" fill="#1D1D1B" cx="11.0874375" cy="19.6700312" rx="0.71875" ry="0.7245"></ellipse>
            </g>
        </g>
    </g>
</svg>